<?xml version="1.0" standalone="no"?>
<!DOCTYPE svg PUBLIC "-//W3C//DTD SVG 20010904//EN"
 "http://www.w3.org/TR/2001/REC-SVG-20010904/DTD/svg10.dtd">
<svg version="1.0" xmlns="http://www.w3.org/2000/svg" viewBox="0 0 512.000000 512.000000"
 preserveAspectRatio="xMidYMid meet">

<g transform="translate(0.000000,512.000000) scale(0.100000,-0.100000)"
fill="#000000" stroke="none">
<path d="M2472 4420 c-33 -15 -47 -29 -62 -62 -19 -41 -20 -70 -20 -601 0
-378 -4 -572 -11 -603 -7 -25 -27 -61 -48 -84 -20 -22 -148 -116 -286 -208
-137 -92 -258 -179 -269 -194 -11 -16 -21 -49 -23 -80 -5 -69 20 -112 84 -140
81 -36 97 -29 387 165 144 96 272 187 285 201 l25 26 25 -24 c14 -13 145 -103
291 -200 245 -163 270 -177 327 -186 77 -13 123 3 153 52 27 42 23 126 -7 166
-11 15 -132 102 -269 194 -137 91 -263 184 -281 205 -64 75 -63 69 -63 687 0
524 -2 564 -19 601 -22 48 -54 78 -100 94 -47 15 -69 14 -119 -9z"/>
<path d="M1630 3789 c-539 -62 -976 -452 -1108 -988 l-26 -106 -3 -655 c-5
-735 -4 -742 64 -880 102 -208 348 -332 598 -302 97 12 359 83 464 126 147 60
322 199 417 332 62 86 120 213 151 329 24 93 26 115 27 315 1 244 -3 259 -76
300 -50 28 -143 25 -185 -6 -65 -49 -67 -58 -75 -272 -7 -221 -22 -295 -85
-414 -64 -122 -197 -246 -320 -299 -93 -40 -330 -99 -396 -99 -124 0 -227 77
-258 193 -6 24 -9 260 -7 670 l4 632 26 98 c44 160 118 293 230 412 155 167
363 269 600 296 118 13 144 7 182 -44 17 -23 21 -47 26 -165 6 -152 14 -176
73 -212 85 -52 203 1 237 106 20 58 7 274 -19 349 -54 150 -175 256 -326 284
-66 12 -106 12 -215 0z"/>
<path d="M3260 3787 c-147 -35 -259 -136 -311 -282 -26 -75 -39 -291 -19 -349
35 -108 142 -154 247 -107 67 31 77 55 84 206 6 146 19 184 71 211 25 13 47
15 107 9 175 -15 359 -82 495 -179 142 -101 276 -278 336 -443 57 -160 60
-196 60 -857 0 -378 -4 -615 -10 -638 -18 -63 -70 -130 -125 -157 -83 -43
-160 -41 -339 9 -83 22 -179 55 -214 73 -173 86 -310 258 -357 447 -10 42 -18
133 -22 253 -6 209 -12 227 -82 274 -47 32 -135 32 -181 1 -69 -47 -75 -64
-78 -225 -10 -391 82 -643 313 -861 138 -130 254 -188 537 -268 152 -44 171
-47 283 -47 192 -1 269 30 398 156 55 53 84 91 111 147 67 138 68 146 63 880
-4 715 -3 700 -67 889 -81 242 -273 495 -482 638 -149 103 -355 186 -522 213
-112 17 -238 20 -296 7z"/>
<path d="M1428 1960 c-38 -21 -78 -68 -78 -93 0 -37 -35 -56 -150 -82 -179
-40 -189 -44 -230 -82 -48 -43 -66 -95 -50 -151 5 -22 18 -46 28 -55 27 -24
87 -47 125 -47 52 0 335 68 394 95 153 69 234 236 173 356 -39 75 -131 101
-212 59z"/>
<path d="M3560 1949 c-63 -25 -100 -85 -100 -162 0 -108 60 -208 152 -254 45
-23 376 -103 423 -103 30 0 100 33 133 63 31 29 45 87 32 136 -10 39 -70 104
-106 115 -46 13 -278 66 -293 66 -10 0 -26 21 -41 53 -40 84 -119 118 -200 86z"/>
</g>
</svg>
