<svg 
 viewBox="0 0 512.000000 512.000000"
 preserveAspectRatio="xMidYMid meet">

<g transform="translate(0.000000,512.000000) scale(0.100000,-0.100000)"
fill="#000000" stroke="none">
<path d="M2330 5110 c-494 -48 -950 -230 -1350 -538 -195 -150 -448 -432 -594
-662 -63 -99 -186 -351 -230 -471 -49 -134 -102 -340 -128 -499 -31 -195 -31
-565 0 -760 45 -276 116 -498 237 -745 132 -269 269 -460 489 -681 221 -220
412 -357 681 -489 247 -121 469 -192 745 -237 195 -31 565 -31 760 0 276 45
498 116 745 237 269 132 460 269 681 489 220 221 357 412 489 681 88 179 132
296 180 476 63 240 78 371 78 649 0 278 -15 409 -78 649 -48 180 -92 297 -180
476 -132 269 -269 460 -489 681 -221 220 -412 357 -681 489 -246 121 -474 193
-740 235 -147 23 -475 34 -615 20z m508 -475 c707 -99 1309 -540 1614 -1183
137 -288 198 -564 198 -892 0 -191 -16 -329 -59 -506 -182 -741 -784 -1343
-1525 -1525 -177 -43 -315 -59 -506 -59 -191 0 -329 16 -506 59 -741 182
-1343 784 -1525 1525 -43 177 -59 315 -59 506 0 191 16 329 59 506 182 742
784 1344 1527 1525 67 16 164 36 215 43 131 19 432 20 567 1z"/>
<path d="M1500 3356 c-66 -14 -90 -27 -142 -74 -119 -107 -130 -304 -24 -428
19 -22 58 -53 87 -69 49 -27 63 -30 144 -30 102 0 150 18 218 83 153 147 107
411 -87 497 -66 30 -128 36 -196 21z"/>
<path d="M3493 3360 c-240 -48 -332 -354 -156 -522 68 -65 116 -83 218 -83 81
0 95 3 144 30 67 37 115 92 142 164 53 142 -13 315 -148 385 -25 12 -136 38
-152 35 -3 -1 -25 -5 -48 -9z"/>
<path d="M2370 2315 c-230 -32 -441 -121 -630 -266 -153 -116 -200 -183 -200
-281 1 -129 102 -228 232 -228 69 1 117 24 203 100 168 148 359 220 585 220
226 0 417 -72 585 -220 87 -77 134 -100 205 -100 129 0 230 101 230 230 0 96
-48 164 -200 279 -291 223 -647 316 -1010 266z"/>
</g>
</svg>
