<svg viewBox="0 0 512.000000 512.000000"
 preserveAspectRatio="xMidYMid meet">

<g transform="translate(0.000000,512.000000) scale(0.100000,-0.100000)"
fill="#000000" stroke="none">
<path d="M1695 4414 c-173 -16 -338 -60 -466 -124 -340 -171 -611 -518 -713
-913 -128 -495 24 -1067 422 -1581 360 -465 958 -914 1432 -1074 149 -50 232
-49 390 4 216 72 496 229 755 424 616 463 1008 1026 1111 1595 26 142 26 418
0 535 -89 410 -333 767 -658 962 -426 255 -953 226 -1343 -73 l-65 -49 -70 53
c-198 151 -410 227 -670 240 -47 2 -103 3 -125 1z m175 -324 c123 -13 227 -42
314 -88 76 -40 182 -132 217 -189 35 -56 116 -79 186 -52 15 6 62 43 103 83
125 121 232 182 389 223 137 35 316 35 453 0 401 -104 700 -478 749 -936 40
-365 -117 -804 -422 -1186 -135 -170 -382 -407 -574 -552 -299 -225 -657 -406
-768 -389 -159 26 -488 206 -754 413 -650 506 -1000 1108 -970 1668 21 373
237 725 557 903 106 59 251 98 410 110 8 1 58 -3 110 -8z"/>
<path d="M2159 3497 c-43 -22 -47 -28 -194 -320 l-150 -297 -286 0 c-279 0
-287 -1 -330 -23 -114 -59 -118 -247 -5 -298 38 -17 71 -19 399 -19 460 0 427
-14 561 243 43 81 81 147 85 147 4 0 98 -217 210 -482 112 -266 210 -493 217
-505 19 -30 85 -63 126 -63 63 0 86 26 293 338 l200 301 298 1 c277 0 301 1
337 20 62 32 85 73 85 152 0 72 -14 102 -69 142 -26 20 -42 21 -394 24 -314 3
-372 1 -407 -13 -36 -14 -53 -35 -175 -220 -74 -112 -138 -205 -142 -205 -3 0
-35 69 -71 153 -288 679 -371 870 -388 891 -45 57 -128 71 -200 33z"/>
</g>
</svg>
