<svg 
 viewBox="0 0 512.000000 512.000000"
 preserveAspectRatio="xMidYMid meet">

<g transform="translate(0.000000,512.000000) scale(0.100000,-0.100000)"
fill="#000000" stroke="none">
<path d="M3295 4295 c-90 -20 -170 -50 -254 -97 -68 -38 -145 -111 -740 -703
-365 -363 -690 -693 -722 -732 -71 -89 -93 -134 -265 -548 l-137 -330 -137
-141 c-115 -117 -143 -153 -173 -215 -99 -205 -63 -430 95 -587 105 -106 213
-152 360 -152 172 0 248 39 434 222 l142 139 333 140 c411 171 419 175 494
222 41 27 274 252 723 700 365 364 678 682 697 707 126 171 193 434 165 652
-16 121 -41 202 -98 313 -37 73 -64 108 -142 185 -78 79 -112 105 -188 144
-134 68 -252 96 -406 95 -66 0 -148 -7 -181 -14z m281 -304 c246 -47 424 -257
424 -498 0 -96 -26 -193 -70 -267 -49 -80 -1364 -1389 -1441 -1434 -31 -18
-195 -92 -366 -166 l-311 -133 -160 160 -159 159 137 320 c88 203 155 345 184
387 29 42 281 301 708 727 611 609 668 664 731 694 113 55 215 71 323 51z
m-2146 -2566 l125 -125 -70 -71 c-80 -81 -113 -99 -186 -99 -97 0 -158 52
-167 141 -8 89 3 116 86 201 41 43 78 78 81 78 4 0 62 -56 131 -125z"/>
<path d="M3394 3601 c-69 -51 -1413 -1405 -1423 -1434 -30 -80 3 -173 74 -207
51 -25 79 -25 130 -1 27 13 262 242 742 722 625 627 702 708 709 742 27 151
-118 263 -232 178z"/>
</g>
</svg>
